<svg width="42" height="42" viewBox="0 0 42 42" fill="none" xmlns="http://www.w3.org/2000/svg">
<circle cx="21" cy="21" r="20" stroke="#C4C4C4" stroke-width="2"/>
<path d="M27.2151 13.8138C26.9281 13.6541 26.6125 13.5525 26.2862 13.5149C25.96 13.4773 25.6295 13.5044 25.3138 13.5946C24.998 13.6848 24.7031 13.8364 24.4459 14.0406C24.1888 14.2449 23.9744 14.4978 23.8151 14.785L19.1738 23.1375L16.5176 20.4813C16.287 20.2425 16.0111 20.052 15.7061 19.921C15.4011 19.79 15.073 19.721 14.7411 19.7181C14.4091 19.7152 14.0799 19.7785 13.7727 19.9042C13.4655 20.0299 13.1863 20.2155 12.9516 20.4503C12.7169 20.685 12.5312 20.9641 12.4055 21.2714C12.2798 21.5786 12.2166 21.9078 12.2195 22.2398C12.2223 22.5717 12.2913 22.8998 12.4223 23.2048C12.5534 23.5098 12.7438 23.7856 12.9826 24.0163L17.9826 29.0163C18.4551 29.49 19.0926 29.75 19.7501 29.75L20.0963 29.725C20.4795 29.6714 20.845 29.5296 21.1641 29.3107C21.4832 29.0919 21.7471 28.8019 21.9351 28.4638L28.1851 17.2138C28.3447 16.9268 28.4461 16.6113 28.4838 16.2851C28.5214 15.9589 28.4944 15.6286 28.4043 15.3128C28.3142 14.9971 28.1628 14.7022 27.9588 14.445C27.7547 14.1878 27.502 13.9733 27.2151 13.8138Z" fill="#C4C4C4"/>
</svg>
